<?xml version="1.0" encoding="UTF-8"?>
<svg id="Layer_2" data-name="Layer 2" xmlns="http://www.w3.org/2000/svg" xmlns:xlink="http://www.w3.org/1999/xlink" viewBox="0 0 226.78 69.22">
  <defs>
    <style>
      .cls-1 {
        fill: #fff;
      }

      .cls-2 {
        fill: #f0b90b;
      }

      .cls-3 {
        fill: #0b0d10;
      }
    </style>
    <symbol id="logo_7" data-name="logo 7" viewBox="0 0 113.96 73.03">
      <g>
        <path class="cls-2" d="M103.67,0H10.3C4.61,0,0,4.61,0,10.3V62.74c0,5.69,4.61,10.3,10.3,10.3H103.67c5.69,0,10.3-4.61,10.3-10.3v-4.24h-12.22c-.55,3.86-4.1,6.57-7.97,6.06-3.9-.51-6.64-4.08-6.13-7.98,.51-3.9,4.08-6.64,7.98-6.13,3.24,.42,5.69,2.97,6.12,6.06h12.22V10.3c0-5.69-4.61-10.3-10.3-10.3ZM39.14,0h1.99V7.55l3.94,3.95c1.44-1.08,3.28-1.62,5.2-1.37,3.9,.51,6.64,4.08,6.13,7.98-.51,3.9-4.08,6.64-7.98,6.13-3.9-.51-6.64-4.08-6.13-7.98,.17-1.26,.65-2.4,1.37-3.35l-4.53-4.53V0ZM19.96,16.26c.42-3.24,2.97-5.69,6.06-6.12V0h1.99V10.13c3.86,.54,6.57,4.1,6.06,7.97-.51,3.9-4.08,6.64-7.98,6.13-3.9-.51-6.64-4.08-6.13-7.98Zm81.01,3.32c-18.64,20.47-41.29,35.61-58.22,44.19-2.69,1.36-5.23,.93-7.74-.67-8.42-5.35-18.45-14.13-25.42-25.87-.62-1.04-1.08-2.81,.66-3.95,1.37-.9,3-.28,3.79,.81,4.31,6,11.83,10.58,20.12,11.66,5.14,.67,11.21-.45,14.68-1.72,17.14-6.25,33.35-16.66,49.04-28.96,.48-.37,2.21-.75,3.43,.62,1.43,1.62,.08,3.43-.33,3.88Z"/>
        <path class="cls-3" d="M26.09,24.24c3.9,.51,7.47-2.24,7.98-6.13,.51-3.87-2.2-7.42-6.06-7.97V0h-1.99V10.13c-3.09,.44-5.64,2.88-6.06,6.12-.51,3.9,2.24,7.47,6.13,7.98Z"/>
        <path class="cls-3" d="M42.3,16.26c-.51,3.9,2.24,7.47,6.13,7.98,3.9,.51,7.47-2.24,7.98-6.13,.51-3.9-2.24-7.47-6.13-7.98-1.92-.25-3.76,.29-5.2,1.37l-3.94-3.95V0h-1.99V8.37l4.53,4.53c-.72,.95-1.2,2.09-1.37,3.35Z"/>
        <path class="cls-3" d="M95.62,50.44c-3.9-.51-7.47,2.24-7.98,6.13-.51,3.9,2.24,7.47,6.13,7.98,3.87,.51,7.42-2.2,7.97-6.06h12.22v-1.99h-12.22c-.44-3.09-2.88-5.64-6.12-6.06Z"/>
        <path class="cls-3" d="M97.87,15.07c-15.7,12.3-31.9,22.7-49.04,28.96-3.47,1.27-9.54,2.39-14.68,1.72-8.29-1.09-15.8-5.66-20.12-11.66-.79-1.09-2.42-1.71-3.79-.81-1.74,1.14-1.28,2.92-.66,3.95,6.97,11.73,17,20.51,25.42,25.87,2.51,1.59,5.05,2.03,7.74,.67,16.93-8.58,39.58-23.71,58.22-44.19,.41-.45,1.76-2.26,.33-3.88-1.21-1.38-2.95-1-3.43-.62Z"/>
      </g>
    </symbol>
  </defs>
  <g id="Layer_1-2" data-name="Layer 1">
    <g>
      <g>
        <path class="cls-1" d="M92.58,5.93c.31,.31,.67,.56,1.08,.75,.41,.19,.86,.28,1.33,.28s.92-.09,1.33-.28c.41-.19,.77-.43,1.08-.75,.31-.31,.55-.68,.72-1.09,.17-.42,.26-.86,.26-1.32,0-1.02-.33-1.85-.98-2.5-.65-.65-1.45-.97-2.41-.97s-1.76,.32-2.41,.97c-.65,.65-.98,1.48-.98,2.5,0,.46,.09,.9,.26,1.32,.17,.42,.41,.78,.72,1.09Z"/>
        <path class="cls-1" d="M106.13,1.02c-.65-.65-1.45-.97-2.41-.97s-1.76,.32-2.41,.97c-.65,.65-.98,1.48-.98,2.5,0,.46,.09,.9,.26,1.32,.17,.42,.41,.78,.72,1.09,.31,.31,.67,.56,1.08,.75,.41,.19,.86,.28,1.33,.28s.92-.09,1.33-.28c.41-.19,.77-.43,1.08-.75,.31-.31,.55-.68,.72-1.09,.17-.42,.26-.86,.26-1.32,0-1.02-.33-1.85-.98-2.5Z"/>
        <path class="cls-1" d="M36.28,35.29c-.96,0-1.76,.32-2.41,.97-.65,.65-.98,1.48-.98,2.5,0,.46,.09,.9,.26,1.32,.17,.42,.41,.78,.72,1.09,.31,.31,.67,.56,1.08,.75,.41,.19,.86,.28,1.33,.28s.92-.09,1.33-.28c.41-.19,.77-.43,1.08-.75,.31-.31,.55-.68,.72-1.09,.17-.42,.26-.86,.26-1.32,0-1.02-.33-1.85-.98-2.5-.65-.65-1.45-.97-2.41-.97Z"/>
        <path class="cls-1" d="M45.01,35.29c-.96,0-1.76,.32-2.41,.97-.65,.65-.98,1.48-.98,2.5,0,.46,.09,.9,.26,1.32,.17,.42,.41,.78,.72,1.09,.31,.31,.67,.56,1.08,.75,.41,.19,.86,.28,1.33,.28s.92-.09,1.33-.28c.41-.19,.77-.43,1.08-.75,.31-.31,.55-.68,.72-1.09,.17-.42,.26-.86,.26-1.32,0-1.02-.33-1.85-.98-2.5-.65-.65-1.45-.97-2.41-.97Z"/>
        <path class="cls-1" d="M84,35.29c-.96,0-1.76,.32-2.41,.97-.65,.65-.98,1.48-.98,2.5,0,.46,.09,.9,.26,1.32,.17,.42,.41,.78,.72,1.09,.31,.31,.67,.56,1.08,.75,.41,.19,.86,.28,1.33,.28s.92-.09,1.33-.28c.41-.19,.77-.43,1.08-.75,.31-.31,.55-.68,.72-1.09,.17-.42,.26-.86,.26-1.32,0-1.02-.33-1.85-.98-2.5-.65-.65-1.45-.97-2.41-.97Z"/>
        <path class="cls-1" d="M101.85,24.48c0,.94-.75,1.7-1.68,1.7h-13.03V10.84h-5.26v15.35h-8.84c-1.36-10.13-8.2-13.05-14.79-15.28l-1.52,5.11c6.73,2.37,9.76,4.67,11.03,10.17h-14.24s0,5.34,0,5.34h46.65c3.82,0,6.93-3.16,6.93-7.04V10.84h-5.26v13.64Z"/>
        <path class="cls-1" d="M44.4,10.84v13.64c0,.94-.75,1.7-1.68,1.7h-11.23V0h-5.32V26.42c0,5.84-4.66,10.57-10.42,10.57h0c-5.75,0-10.42-4.73-10.42-10.57v-.22H.02v.16c0,8.82,7.04,15.97,15.73,15.97h0c6.91,0,12.77-4.53,14.88-10.82h12.08c3.82,0,6.93-3.16,6.93-7.04V10.84h-5.26Z"/>
      </g>
      <use width="113.96" height="73.03" transform="translate(120.53 .12) scale(.93 .95)" xlink:href="#logo_7"/>
      <g>
        <path class="cls-1" d="M5.53,63.34c-.39,0-.68-.11-.89-.33-.21-.22-.32-.54-.32-.95v-5.6h2.42v-2.17h-2.42v-2.37H1.5v2.37H0v2.17H1.5v5.63c0,1.15,.32,2.01,.95,2.6,.63,.59,1.53,.89,2.68,.89,.45,0,.87-.05,1.27-.15,.4-.1,.74-.26,1.02-.46l-.76-1.99c-.31,.24-.69,.36-1.14,.36Z"/>
        <path class="cls-1" d="M12.95,55.57c-.78,0-1.55,.1-2.29,.31-.74,.21-1.38,.49-1.91,.87l1.01,1.97c.35-.28,.77-.5,1.27-.66,.5-.16,1.01-.24,1.53-.24,.75,0,1.31,.17,1.68,.5,.37,.33,.56,.8,.56,1.42h-2.24c-1.42,0-2.47,.26-3.16,.78-.68,.52-1.02,1.23-1.02,2.13,0,.57,.14,1.07,.43,1.52,.29,.45,.71,.8,1.26,1.05s1.2,.38,1.94,.38c1.45,0,2.43-.45,2.96-1.36v1.35h2.64v-5.69c0-1.45-.4-2.53-1.21-3.25-.81-.72-1.96-1.08-3.47-1.08Zm1.86,6.8c-.16,.43-.42,.76-.8,.99-.37,.22-.8,.33-1.28,.33s-.88-.11-1.17-.32c-.28-.21-.42-.5-.42-.86,0-.76,.58-1.14,1.74-1.14h1.93v.99Z"/>
        <path class="cls-1" d="M28.39,56.19c-.74-.42-1.56-.62-2.47-.62-1.24,0-2.22,.39-2.93,1.18v-4.81h-2.82v13.65h2.69v-1.26c.7,.84,1.72,1.27,3.06,1.27,.9,0,1.73-.21,2.47-.62s1.32-1,1.74-1.75c.42-.75,.63-1.63,.63-2.63s-.21-1.88-.63-2.63c-.42-.75-1-1.34-1.74-1.75Zm-1.18,6.35c-.46,.49-1.06,.73-1.78,.73s-1.32-.24-1.78-.73c-.46-.49-.7-1.14-.7-1.96s.23-1.47,.7-1.96c.46-.49,1.06-.73,1.78-.73s1.32,.24,1.78,.73c.46,.49,.7,1.14,.7,1.96s-.23,1.47-.7,1.96Z"/>
        <path class="cls-1" d="M39.74,56.74c-.7-.78-1.67-1.18-2.91-1.18-.92,0-1.74,.21-2.49,.61-.74,.41-1.32,.99-1.74,1.75-.42,.76-.63,1.64-.63,2.64s.21,1.88,.63,2.64c.42,.76,1,1.34,1.74,1.75,.74,.41,1.57,.61,2.49,.61,1.33,0,2.34-.42,3.04-1.27v1.26h2.69v-13.65h-2.82v4.81Zm-.65,5.79c-.47,.49-1.06,.73-1.77,.73s-1.32-.24-1.79-.73-.71-1.14-.71-1.96,.24-1.47,.71-1.96c.47-.49,1.07-.73,1.79-.73s1.3,.24,1.77,.73c.47,.49,.71,1.14,.71,1.96s-.24,1.47-.71,1.96Z"/>
        <path class="cls-1" d="M52.21,56.18c-.77-.41-1.63-.61-2.59-.61s-1.86,.21-2.65,.64c-.79,.43-1.41,1.02-1.86,1.79-.45,.77-.68,1.62-.68,2.58s.23,1.83,.69,2.59c.46,.76,1.11,1.35,1.95,1.78,.84,.43,1.81,.64,2.91,.64,1.76,0,3.1-.52,4.01-1.57l-1.5-1.63c-.34,.33-.7,.56-1.09,.71-.39,.15-.84,.23-1.35,.23-.74,0-1.35-.17-1.84-.52-.49-.35-.81-.83-.94-1.43h7.36c.04-.47,.05-.72,.05-.76,0-1.01-.22-1.9-.66-2.67-.44-.77-1.05-1.35-1.82-1.76Zm-4.97,3.54c.1-.63,.36-1.12,.8-1.48s.97-.54,1.61-.54,1.16,.18,1.59,.55c.43,.37,.7,.86,.8,1.47h-4.79Z"/>
        <path class="cls-1" d="M60.22,55.57c-.78,0-1.55,.1-2.29,.31-.74,.21-1.38,.49-1.91,.87l1.01,1.97c.35-.28,.77-.5,1.27-.66,.5-.16,1.01-.24,1.53-.24,.75,0,1.31,.17,1.68,.5,.37,.33,.56,.8,.56,1.42h-2.24c-1.42,0-2.47,.26-3.16,.78-.68,.52-1.02,1.23-1.02,2.13,0,.57,.14,1.07,.43,1.52,.29,.45,.71,.8,1.26,1.05s1.2,.38,1.94,.38c1.45,0,2.43-.45,2.96-1.36v1.35h2.64v-5.69c0-1.45-.4-2.53-1.21-3.25-.81-.72-1.96-1.08-3.47-1.08Zm1.86,6.8c-.16,.43-.42,.76-.8,.99-.37,.22-.8,.33-1.28,.33s-.88-.11-1.17-.32c-.28-.21-.42-.5-.42-.86,0-.76,.58-1.14,1.74-1.14h1.93v.99Z"/>
        <rect class="cls-1" x="67.46" y="52.02" width="2.82" height="13.56"/>
        <path class="cls-1" d="M73.96,62.08c-.49,0-.91,.16-1.25,.48-.34,.32-.51,.74-.51,1.26s.17,.93,.51,1.27c.34,.34,.75,.51,1.25,.51s.91-.17,1.25-.51c.34-.34,.51-.76,.51-1.27s-.17-.94-.51-1.26c-.34-.32-.75-.48-1.25-.48Z"/>
        <path class="cls-1" d="M84.88,56.21c-.81-.43-1.72-.64-2.75-.64s-1.94,.21-2.76,.64c-.81,.43-1.45,1.02-1.91,1.78-.46,.76-.69,1.62-.69,2.59s.23,1.83,.69,2.59c.46,.76,1.09,1.35,1.91,1.78,.81,.43,1.73,.64,2.76,.64s1.94-.21,2.75-.64c.81-.43,1.44-1.02,1.9-1.78,.46-.76,.69-1.62,.69-2.59s-.23-1.83-.69-2.59c-.46-.76-1.09-1.35-1.9-1.78Zm-.97,6.33c-.46,.49-1.06,.73-1.78,.73s-1.32-.24-1.79-.73-.71-1.14-.71-1.96,.24-1.47,.71-1.96c.47-.49,1.07-.73,1.79-.73s1.32,.24,1.78,.73c.46,.49,.7,1.14,.7,1.96s-.23,1.47-.7,1.96Z"/>
        <path class="cls-1" d="M92.04,56.99v-1.28h-2.69v9.87h2.82v-4.73c0-.9,.23-1.58,.69-2.03,.46-.45,1.09-.68,1.9-.68,.11,0,.32,.01,.63,.04v-2.6c-.75,0-1.41,.12-1.98,.36-.57,.24-1.03,.6-1.36,1.07Z"/>
        <path class="cls-1" d="M104.34,55.71v1.25c-.74-.93-1.81-1.39-3.22-1.39-.89,0-1.71,.2-2.45,.59-.74,.39-1.33,.94-1.76,1.65-.43,.71-.65,1.53-.65,2.46s.22,1.75,.65,2.46c.43,.71,1.02,1.26,1.76,1.65,.74,.39,1.56,.59,2.45,.59,1.31,0,2.34-.4,3.07-1.21v.42c0,.89-.23,1.56-.7,2-.46,.44-1.18,.66-2.16,.66-.63,0-1.25-.1-1.88-.3-.63-.2-1.15-.47-1.56-.8l-1.12,2.02c.55,.43,1.25,.77,2.1,.99,.84,.23,1.74,.34,2.68,.34,1.78,0,3.14-.43,4.07-1.3,.93-.87,1.39-2.19,1.39-3.98v-8.1h-2.68Zm-.82,6.28c-.48,.44-1.09,.66-1.84,.66s-1.36-.22-1.84-.66c-.48-.44-.72-1.02-.72-1.73s.24-1.29,.72-1.73c.48-.44,1.1-.66,1.84-.66s1.36,.22,1.84,.66c.48,.44,.71,1.02,.71,1.73s-.24,1.29-.71,1.73Z"/>
      </g>
    </g>
  </g>
</svg>