<?xml version="1.0" encoding="utf-8"?>
<!-- Generator: Adobe Illustrator 27.0.0, SVG Export Plug-In . SVG Version: 6.00 Build 0)  -->
<svg version="1.1" id="Layer_1" xmlns="http://www.w3.org/2000/svg" xmlns:xlink="http://www.w3.org/1999/xlink" x="0px" y="0px"
	 viewBox="0 0 1920 1080" style="enable-background:new 0 0 1920 1080;" xml:space="preserve">
<style type="text/css">
	.st0{fill-rule:evenodd;clip-rule:evenodd;fill:none;stroke:#FFFFFF;stroke-width:3;stroke-miterlimit:10;}
	.st1{fill-rule:evenodd;clip-rule:evenodd;fill:#FFFFFF;}
	.st2{fill:#FFFFFF;}
	.st3{fill:none;stroke:#FFFFFF;stroke-width:3;stroke-miterlimit:10;}
</style>
<g>
	<g>
		<polygon class="st0" points="996.41,728.59 996.41,674.76 982.37,674.76 982.37,744.51 982.5,744.51 996.41,744.51 
			1023.95,744.51 1023.95,728.59 		"/>
		<polygon class="st0" points="1076.95,742.76 1061.51,728.78 1089.48,699.94 1078.67,689.6 1042.33,727.5 1069.39,756.11 
			1118.27,756.11 1118.27,742.76 		"/>
		<rect x="912.43" y="742.53" class="st0" width="45.71" height="12.88"/>
		
			<rect x="850.41" y="703.77" transform="matrix(6.123234e-17 -1 1 6.123234e-17 97.8949 1616.1962)" class="st0" width="13.27" height="110.76"/>
		
			<rect x="991.14" y="732.53" transform="matrix(6.123234e-17 -1 1 6.123234e-17 238.3112 1756.9357)" class="st0" width="12.97" height="53.57"/>
		<polygon class="st0" points="1052.68,753.48 1024.18,753.48 1024.18,728.49 1026.36,726.86 		"/>
		<g>
			<g>
				<path class="st1" d="M1082.09,805.6c6.26,0,11.36-5.1,11.36-11.36c0-6.26-5.1-11.36-11.36-11.36c-6.26,0-11.36,5.1-11.36,11.36
					C1070.72,800.5,1075.83,805.6,1082.09,805.6z"/>
			</g>
			<g>
				<path class="st1" d="M1104.81,805.6c6.26,0,11.36-5.1,11.36-11.36c0-6.26-5.1-11.36-11.36-11.36c-6.26,0-11.36,5.1-11.36,11.36
					C1093.45,800.5,1098.55,805.6,1104.81,805.6z"/>
			</g>
		</g>
		<g>
			<path class="st1" d="M939.34,717.2c6.26,0,11.36-5.1,11.36-11.36c0-6.26-5.1-11.36-11.36-11.36c-6.26,0-11.36,5.1-11.36,11.36
				C927.98,712.1,933.09,717.2,939.34,717.2z"/>
		</g>
		<g>
			<g>
				<path class="st1" d="M1010.06,694.48c6.26,0,11.36-5.1,11.36-11.36c0-6.26-5.1-11.36-11.36-11.36c-6.26,0-11.36,5.1-11.36,11.36
					C998.7,689.37,1003.8,694.48,1010.06,694.48z"/>
			</g>
			<g>
				<path class="st1" d="M1032.78,694.48c6.26,0,11.36-5.1,11.36-11.36c0-6.26-5.1-11.36-11.36-11.36c-6.26,0-11.36,5.1-11.36,11.36
					C1021.42,689.37,1026.53,694.48,1032.78,694.48z"/>
			</g>
		</g>
		<g>
			<g>
				<path class="st1" d="M848.59,694.48c6.26,0,11.36-5.1,11.36-11.36c0-6.26-5.1-11.36-11.36-11.36c-6.26,0-11.36,5.1-11.36,11.36
					C837.23,689.37,842.33,694.48,848.59,694.48z"/>
			</g>
			<g>
				<path class="st1" d="M871.31,694.48c6.26,0,11.36-5.1,11.36-11.36c0-6.26-5.1-11.36-11.36-11.36c-6.26,0-11.36,5.1-11.36,11.36
					C859.95,689.37,865.06,694.48,871.31,694.48z"/>
			</g>
		</g>
		<g>
			<polygon class="st2" points="1071.08,753.63 1044.67,727.86 1080.69,690.22 1071.41,680.94 1023.87,727.86 1052.24,753.63 
				1023.95,753.63 1023.95,767.07 1059.28,767.07 1072.69,767.07 1119.27,767.07 1119.27,753.63 			"/>
		</g>
		<g>
			<g>
				<rect x="911.32" y="753.63" class="st2" width="48.14" height="13.44"/>
			</g>
		</g>
		<g>
			<g>
				<polygon class="st2" points="1024.41,755.18 969.64,755.18 969.64,673.83 984.71,673.83 984.71,741.83 1024.41,741.83 				"/>
			</g>
		</g>
		<g>
			<g>
				<rect x="801.23" y="742.33" class="st2" width="111.13" height="12.35"/>
				<path class="st2" d="M911.87,742.83v11.35H801.73v-11.35H911.87 M912.87,741.83H800.73v13.35h112.13V741.83L912.87,741.83z"/>
			</g>
		</g>
		<g>
			<rect x="801.66" y="730.79" class="st3" width="110.3" height="13.17"/>
		</g>
	</g>
	<g>
		<g id="XMLID_254_">
			<g id="XMLID_263_">
				<path id="XMLID_264_" class="st2" d="M1020.35,571.89h-120.7l-85.35-85.35V365.83l85.35-85.35h120.7l85.35,85.35v120.71
					L1020.35,571.89z M903.41,562.8h113.17l80.03-80.02V369.6l-80.03-80.03H903.41l-80.03,80.03v113.18L903.41,562.8z"/>
			</g>
			<g id="XMLID_259_">
				<path id="XMLID_260_" class="st2" d="M960,534.17l-76.36-31.63l-31.63-76.35l31.63-76.36L960,318.2l76.35,31.63l31.63,76.36
					l-31.63,76.35L960,534.17z M890.6,495.58l69.4,28.75l69.4-28.75l28.75-69.4l-28.75-69.4L960,328.04l-69.4,28.74l-28.74,69.4
					L890.6,495.58z"/>
			</g>
			<g id="XMLID_255_">
				<path id="XMLID_256_" class="st2" d="M1021.54,574.77L960,534.68l-61.55,40.09l-15.17-71.87l-71.87-15.17l40.1-61.55
					l-40.1-61.55l71.87-15.17l15.17-71.87L960,317.7l61.55-40.1l15.17,71.87l72.02,15.2l-40.86,60.02l40.69,63.06l-71.84,15.16
					L1021.54,574.77z M826.27,481.58l64.69,13.64l13.65,64.69l55.4-36.09l55.39,36.09l13.65-64.69l64.72-13.65l-36.8-57.02
					l36.62-53.78l-64.54-13.62l-13.64-64.69L960,328.55l-55.4-36.09l-13.65,64.69l-64.69,13.65l36.09,55.4L826.27,481.58z"/>
			</g>
		</g>
		<g id="XMLID_221_">
			<g id="XMLID_252_">
				<path id="XMLID_253_" class="st1" d="M818.84,378.35c5.86,0,10.63-4.78,10.63-10.63s-4.78-10.63-10.63-10.63
					c-5.86,0-10.63,4.78-10.63,10.63S812.99,378.35,818.84,378.35z"/>
			</g>
			<g id="XMLID_250_">
				<path id="XMLID_251_" class="st1" d="M856.94,436.82c5.86,0,10.63-4.78,10.63-10.63c0-5.86-4.78-10.63-10.63-10.63
					s-10.63,4.78-10.63,10.63C846.3,432.04,851.08,436.82,856.94,436.82z"/>
			</g>
			<g id="XMLID_248_">
				<path id="XMLID_249_" class="st1" d="M818.84,495.29c5.86,0,10.63-4.78,10.63-10.63c0-5.86-4.78-10.63-10.63-10.63
					c-5.86,0-10.63,4.78-10.63,10.63C808.21,490.51,812.99,495.29,818.84,495.29z"/>
			</g>
			<g id="XMLID_246_">
				<circle id="XMLID_247_" class="st1" cx="887.12" cy="499.06" r="10.63"/>
			</g>
			<g id="XMLID_244_">
				<path id="XMLID_245_" class="st1" d="M901.53,577.97c5.86,0,10.63-4.78,10.63-10.63c0-5.86-4.78-10.63-10.63-10.63
					c-5.86,0-10.63,4.78-10.63,10.63C890.9,573.2,895.67,577.97,901.53,577.97z"/>
			</g>
			<g id="XMLID_242_">
				<path id="XMLID_243_" class="st1" d="M960,539.88c5.86,0,10.63-4.78,10.63-10.63s-4.78-10.63-10.63-10.63
					s-10.63,4.78-10.63,10.63S954.14,539.88,960,539.88z"/>
			</g>
			<g id="XMLID_240_">
				<path id="XMLID_241_" class="st1" d="M1018.47,577.97c5.86,0,10.63-4.78,10.63-10.63c0-5.86-4.78-10.63-10.63-10.63
					c-5.86,0-10.63,4.78-10.63,10.63C1007.84,573.2,1012.61,577.97,1018.47,577.97z"/>
			</g>
			<g id="XMLID_238_">
				<path id="XMLID_239_" class="st1" d="M1032.88,509.7c5.86,0,10.63-4.78,10.63-10.63s-4.78-10.63-10.63-10.63
					c-5.86,0-10.63,4.78-10.63,10.63S1027.02,509.7,1032.88,509.7z"/>
			</g>
			<g id="XMLID_236_">
				<path id="XMLID_237_" class="st1" d="M1101.16,495.29c5.86,0,10.63-4.78,10.63-10.63c0-5.86-4.78-10.63-10.63-10.63
					c-5.86,0-10.63,4.78-10.63,10.63C1090.53,490.51,1095.3,495.29,1101.16,495.29z"/>
			</g>
			<g id="XMLID_234_">
				<path id="XMLID_235_" class="st1" d="M1062.41,435.25c5.86,0,10.63-4.78,10.63-10.63c0-5.86-4.78-10.63-10.63-10.63
					c-5.86,0-10.63,4.78-10.63,10.63C1051.78,430.47,1056.56,435.25,1062.41,435.25z"/>
			</g>
			<g id="XMLID_232_">
				<path id="XMLID_233_" class="st1" d="M1032.88,363.94c5.86,0,10.63-4.78,10.63-10.63c0-5.86-4.78-10.63-10.63-10.63
					c-5.86,0-10.63,4.78-10.63,10.63C1022.25,359.16,1027.02,363.94,1032.88,363.94z"/>
			</g>
			<g id="XMLID_230_">
				<path id="XMLID_231_" class="st1" d="M960,333.75c5.86,0,10.63-4.78,10.63-10.63c0-5.86-4.78-10.63-10.63-10.63
					s-10.63,4.78-10.63,10.63C949.37,328.98,954.14,333.75,960,333.75z"/>
			</g>
			<g id="XMLID_228_">
				<path id="XMLID_229_" class="st1" d="M887.12,363.94c5.86,0,10.63-4.78,10.63-10.63c0-5.86-4.78-10.63-10.63-10.63
					s-10.63,4.78-10.63,10.63C876.49,359.16,881.27,363.94,887.12,363.94z"/>
			</g>
			<g id="XMLID_226_">
				<path id="XMLID_227_" class="st1" d="M1101.16,378.35c5.86,0,10.63-4.78,10.63-10.63c0-5.86-4.78-10.63-10.63-10.63
					c-5.86,0-10.63,4.78-10.63,10.63C1090.53,373.57,1095.3,378.35,1101.16,378.35z"/>
			</g>
			<g id="XMLID_224_">
				<path id="XMLID_225_" class="st1" d="M1018.47,295.66c5.86,0,10.63-4.78,10.63-10.63c0-5.86-4.78-10.63-10.63-10.63
					c-5.86,0-10.63,4.78-10.63,10.63C1007.84,290.88,1012.61,295.66,1018.47,295.66z"/>
			</g>
			<g id="XMLID_222_">
				<path id="XMLID_223_" class="st1" d="M901.53,295.66c5.86,0,10.63-4.78,10.63-10.63s-4.78-10.63-10.63-10.63
					c-5.86,0-10.63,4.78-10.63,10.63S895.67,295.66,901.53,295.66z"/>
			</g>
		</g>
		<g id="XMLID_2_">
			<g id="XMLID_135_">
				<path id="XMLID_136_" class="st2" d="M973.1,375.58v101.43h-20.47v-69.79h-23.45v-13.04c6.89-0.19,12.15-0.87,15.79-2.05
					c3.63-1.18,6.45-3.18,8.46-6c2.01-2.82,3.11-6.33,3.3-10.54H973.1z"/>
			</g>
		</g>
	</g>
</g>
</svg>
